<svg width="646" height="109" viewBox="0 0 646 109" fill="none" xmlns="http://www.w3.org/2000/svg">
<rect x="78" y="52" width="568" height="42" fill="#393E6D"/>
<path d="M90.1787 24.3984H92.6396V81H90.1787V24.3984ZM104.944 24.3984H107.405V68.6953H127.093V71.1562H107.405V73.6172H127.093V76.0781H107.405V78.5391H127.093V81H104.944V24.3984ZM100.022 24.3984H102.483V81H100.022V24.3984ZM95.1006 24.3984H97.5615V81H95.1006V24.3984ZM164.861 59.1934V31.7812H167.322V59.1934C167.322 61.791 166.32 64.0241 164.314 65.8926C162.332 67.7611 159.939 68.6953 157.137 68.6953C154.334 68.6953 151.93 67.7611 149.925 65.8926C147.942 64.0241 146.951 61.791 146.951 59.1934V31.7812H149.412V59.1934C149.412 61.1302 150.164 62.7936 151.668 64.1836C153.195 65.5508 155.018 66.2344 157.137 66.2344C159.256 66.2344 161.067 65.5508 162.571 64.1836C164.098 62.7936 164.861 61.1302 164.861 59.1934ZM169.783 59.1934V31.7812H172.244V59.1934C172.244 63.181 170.763 66.5876 167.801 69.4131C164.839 72.2158 161.284 73.6172 157.137 73.6172C152.99 73.6172 149.435 72.2158 146.473 69.4131C143.51 66.5876 142.029 63.181 142.029 59.1934V31.7812H144.49V59.1934C144.49 62.4974 145.721 65.3229 148.182 67.6699C150.665 69.9941 153.65 71.1562 157.137 71.1562C160.6 71.1562 163.574 69.9941 166.058 67.6699C168.541 65.3229 169.783 62.4974 169.783 59.1934ZM174.705 59.1934V31.7812H177.166V59.1934C177.166 62.6797 176.266 65.9154 174.466 68.9004C172.666 71.8626 170.228 74.2096 167.151 75.9414C164.075 77.6732 160.737 78.5391 157.137 78.5391C153.536 78.5391 150.198 77.6732 147.122 75.9414C144.046 74.2096 141.608 71.8626 139.808 68.9004C138.007 65.9154 137.107 62.6797 137.107 59.1934V31.7812H139.568V59.1934C139.568 62.224 140.354 65.0381 141.927 67.6357C143.499 70.2334 145.63 72.2956 148.318 73.8223C151.03 75.3262 153.969 76.0781 157.137 76.0781C160.304 76.0781 163.232 75.3262 165.921 73.8223C168.632 72.2956 170.774 70.2334 172.347 67.6357C173.919 65.0381 174.705 62.224 174.705 59.1934ZM179.627 59.1934V31.7812H182.088V59.1934C182.088 62.4746 181.427 65.6191 180.105 68.627C178.784 71.612 177.007 74.1868 174.773 76.3516C172.54 78.5163 169.886 80.2367 166.81 81.5127C163.733 82.8115 160.509 83.4609 157.137 83.4609C153.764 83.4609 150.54 82.8115 147.464 81.5127C144.388 80.2367 141.733 78.5163 139.5 76.3516C137.267 74.1868 135.49 71.612 134.168 68.627C132.846 65.6191 132.186 62.4746 132.186 59.1934V31.7812H134.646V59.1934C134.646 63.1126 135.649 66.7471 137.654 70.0967C139.682 73.4463 142.417 76.1009 145.857 78.0605C149.321 80.0202 153.081 81 157.137 81C161.193 81 164.941 80.0202 168.382 78.0605C171.845 76.1009 174.58 73.4463 176.585 70.0967C178.613 66.7471 179.627 63.1126 179.627 59.1934ZM203.04 66.2344V46.5469C203.04 46.5469 207.586 46.5469 216.678 46.5469C219.207 46.5469 221.372 47.5039 223.172 49.418C224.995 51.332 225.906 53.6335 225.906 56.3223C225.906 59.1022 225.006 61.4492 223.206 63.3633C221.406 65.2773 219.23 66.2344 216.678 66.2344H203.04ZM205.501 63.7734H216.678C218.523 63.7734 220.096 63.0557 221.395 61.6201C222.716 60.1846 223.377 58.4186 223.377 56.3223C223.377 54.3171 222.716 52.5967 221.395 51.1611C220.096 49.7256 218.523 49.0078 216.678 49.0078H205.501V63.7734ZM200.579 68.6953H216.678C219.913 68.6953 222.682 67.499 224.983 65.1064C227.285 62.6911 228.436 59.763 228.436 56.3223C228.436 52.9499 227.273 50.0674 224.949 47.6748C222.648 45.2822 219.891 44.0859 216.678 44.0859H200.579V68.6953ZM198.118 71.1562V41.625H216.678C220.574 41.625 223.924 43.0719 226.727 45.9658C229.552 48.8369 230.965 52.2891 230.965 56.3223C230.965 60.4466 229.563 63.9557 226.761 66.8496C223.958 69.7207 220.597 71.1562 216.678 71.1562H198.118ZM195.657 73.6172H216.678C219.686 73.6172 222.477 72.8538 225.052 71.3271C227.627 69.8005 229.677 67.7041 231.204 65.0381C232.731 62.3721 233.494 59.4668 233.494 56.3223C233.494 53.2461 232.731 50.3864 231.204 47.7432C229.677 45.0999 227.615 43.015 225.018 41.4883C222.443 39.9388 219.663 39.1641 216.678 39.1641H195.657V73.6172ZM193.196 76.0781V36.7031H216.678C220.118 36.7031 223.32 37.5804 226.282 39.335C229.267 41.0895 231.637 43.4821 233.392 46.5127C235.146 49.5205 236.023 52.7904 236.023 56.3223C236.023 59.8997 235.146 63.2152 233.392 66.2686C231.637 69.2992 229.267 71.6917 226.282 73.4463C223.32 75.2008 220.118 76.0781 216.678 76.0781H193.196ZM190.735 78.5391H216.678C220.574 78.5391 224.197 77.5592 227.547 75.5996C230.896 73.6172 233.562 70.917 235.545 67.499C237.55 64.0811 238.553 60.3555 238.553 56.3223C238.553 52.3574 237.55 48.6774 235.545 45.2822C233.562 41.8643 230.885 39.1755 227.513 37.2158C224.163 35.2334 220.551 34.2422 216.678 34.2422H190.735V78.5391ZM216.678 81H188.274V31.7812H216.678C221.007 31.7812 225.04 32.8864 228.777 35.0967C232.537 37.2842 235.522 40.2692 237.732 44.0518C239.965 47.8115 241.082 51.9017 241.082 56.3223C241.082 59.6719 240.421 62.8734 239.1 65.9268C237.801 68.9801 236.046 71.612 233.836 73.8223C231.648 76.0098 229.051 77.7529 226.043 79.0518C223.035 80.3506 219.913 81 216.678 81ZM265.384 49.4521C263.47 51.3662 262.513 53.679 262.513 56.3906C262.513 59.1022 263.47 61.4264 265.384 63.3633C267.321 65.2773 269.645 66.2344 272.356 66.2344C275.068 66.2344 277.381 65.2773 279.295 63.3633C281.232 61.4264 282.2 59.1022 282.2 56.3906C282.2 53.679 281.232 51.3662 279.295 49.4521C277.381 47.5153 275.068 46.5469 272.356 46.5469C269.645 46.5469 267.321 47.5153 265.384 49.4521ZM263.641 65.1064C261.248 62.6911 260.052 59.7858 260.052 56.3906C260.052 52.9954 261.248 50.1016 263.641 47.709C266.056 45.2936 268.961 44.0859 272.356 44.0859C275.752 44.0859 278.646 45.2936 281.038 47.709C283.453 50.1016 284.661 52.9954 284.661 56.3906C284.661 59.7858 283.453 62.6911 281.038 65.1064C278.646 67.499 275.752 68.6953 272.356 68.6953C268.961 68.6953 266.056 67.499 263.641 65.1064ZM261.897 45.9658C259.026 48.8597 257.591 52.3346 257.591 56.3906C257.591 60.4466 259.026 63.9215 261.897 66.8154C264.791 69.7093 268.278 71.1562 272.356 71.1562C276.435 71.1562 279.91 69.7093 282.781 66.8154C285.675 63.9215 287.122 60.4466 287.122 56.3906C287.122 52.3346 285.675 48.8597 282.781 45.9658C279.91 43.0719 276.435 41.625 272.356 41.625C268.278 41.625 264.791 43.0719 261.897 45.9658ZM257.42 65.0381C255.893 62.3949 255.13 59.5124 255.13 56.3906C255.13 53.2689 255.893 50.3864 257.42 47.7432C258.969 45.0999 261.066 43.015 263.709 41.4883C266.352 39.9388 269.235 39.1641 272.356 39.1641C275.478 39.1641 278.361 39.9388 281.004 41.4883C283.647 43.015 285.732 45.0999 287.259 47.7432C288.808 50.3864 289.583 53.2689 289.583 56.3906C289.583 59.5124 288.808 62.3949 287.259 65.0381C285.732 67.6813 283.647 69.7777 281.004 71.3271C278.361 72.8538 275.478 73.6172 272.356 73.6172C269.235 73.6172 266.352 72.8538 263.709 71.3271C261.066 69.7777 258.969 67.6813 257.42 65.0381ZM254.207 48.7686C253.182 51.1839 252.669 53.7246 252.669 56.3906C252.669 59.0566 253.182 61.6087 254.207 64.0469C255.255 66.4622 256.657 68.5586 258.411 70.3359C260.188 72.0905 262.285 73.4919 264.7 74.54C267.138 75.5654 269.69 76.0781 272.356 76.0781C275.022 76.0781 277.563 75.5654 279.979 74.54C282.417 73.4919 284.513 72.0905 286.268 70.3359C288.045 68.5586 289.446 66.4622 290.472 64.0469C291.52 61.6087 292.044 59.0566 292.044 56.3906C292.044 53.7246 291.52 51.1839 290.472 48.7686C289.446 46.3304 288.045 44.234 286.268 42.4795C284.513 40.7021 282.417 39.3008 279.979 38.2754C277.563 37.2272 275.022 36.7031 272.356 36.7031C269.69 36.7031 267.138 37.2272 264.7 38.2754C262.285 39.3008 260.188 40.7021 258.411 42.4795C256.657 44.234 255.255 46.3304 254.207 48.7686ZM251.951 65.0039C250.789 62.2695 250.208 59.3984 250.208 56.3906C250.208 53.3828 250.789 50.5117 251.951 47.7773C253.136 45.043 254.708 42.696 256.668 40.7363C258.65 38.7539 261.009 37.1816 263.743 36.0195C266.478 34.8346 269.349 34.2422 272.356 34.2422C275.364 34.2422 278.235 34.8346 280.97 36.0195C283.704 37.1816 286.051 38.7539 288.011 40.7363C289.993 42.696 291.565 45.043 292.728 47.7773C293.912 50.5117 294.505 53.3828 294.505 56.3906C294.505 59.3984 293.912 62.2695 292.728 65.0039C291.565 67.7383 289.993 70.0967 288.011 72.0791C286.051 74.0387 283.704 75.611 280.97 76.7959C278.235 77.958 275.364 78.5391 272.356 78.5391C269.349 78.5391 266.478 77.958 263.743 76.7959C261.009 75.611 258.65 74.0387 256.668 72.0791C254.708 70.0967 253.136 67.7383 251.951 65.0039ZM249.695 46.8545C248.396 49.8851 247.747 53.0638 247.747 56.3906C247.747 59.7174 248.396 62.9076 249.695 65.9609C250.994 68.9915 252.737 71.612 254.925 73.8223C257.135 76.0098 259.756 77.7529 262.786 79.0518C265.84 80.3506 269.03 81 272.356 81C275.683 81 278.862 80.3506 281.893 79.0518C284.946 77.7529 287.566 76.0098 289.754 73.8223C291.964 71.612 293.719 68.9915 295.018 65.9609C296.316 62.9076 296.966 59.7174 296.966 56.3906C296.966 53.0638 296.316 49.8851 295.018 46.8545C293.719 43.8011 291.964 41.1807 289.754 38.9932C287.566 36.7829 284.946 35.0283 281.893 33.7295C278.862 32.4307 275.683 31.7812 272.356 31.7812C269.03 31.7812 265.84 32.4307 262.786 33.7295C259.756 35.0283 257.135 36.7829 254.925 38.9932C252.737 41.1807 250.994 43.8011 249.695 46.8545ZM247.439 66.918C246.004 63.5684 245.286 60.0592 245.286 56.3906C245.286 52.722 246.004 49.2243 247.439 45.8975C248.875 42.5479 250.8 39.6654 253.216 37.25C255.631 34.8346 258.502 32.9092 261.829 31.4736C265.179 30.0381 268.688 29.3203 272.356 29.3203C276.025 29.3203 279.523 30.0381 282.85 31.4736C286.199 32.9092 289.082 34.8346 291.497 37.25C293.912 39.6654 295.838 42.5479 297.273 45.8975C298.709 49.2243 299.427 52.722 299.427 56.3906C299.427 60.0592 298.709 63.5684 297.273 66.918C295.838 70.2448 293.912 73.1159 291.497 75.5312C289.082 77.9466 286.199 79.8721 282.85 81.3076C279.523 82.7432 276.025 83.4609 272.356 83.4609C268.688 83.4609 265.179 82.7432 261.829 81.3076C258.502 79.8721 255.631 77.9466 253.216 75.5312C250.8 73.1159 248.875 70.2448 247.439 66.918ZM352.815 43.7441L350.799 45.0771C349.568 43.2542 347.962 41.8187 345.979 40.7705C344.02 39.6995 341.889 39.1641 339.588 39.1641C335.851 39.1641 332.661 40.4857 330.018 43.1289C327.374 45.7721 326.053 48.9622 326.053 52.6992C326.053 56.4362 327.374 59.6263 330.018 62.2695C332.661 64.9128 335.851 66.2344 339.588 66.2344C341.889 66.2344 344.02 65.6989 345.979 64.6279C347.962 63.557 349.568 62.11 350.799 60.2871L352.781 61.7227C351.323 63.8646 349.432 65.5622 347.107 66.8154C344.783 68.0687 342.277 68.6953 339.588 68.6953C337.423 68.6953 335.35 68.2738 333.367 67.4307C331.408 66.5876 329.71 65.4482 328.274 64.0127C326.839 62.5771 325.7 60.8796 324.856 58.9199C324.013 56.9375 323.592 54.8639 323.592 52.6992C323.592 50.5345 324.013 48.4723 324.856 46.5127C325.7 44.5303 326.839 42.8213 328.274 41.3857C329.71 39.9502 331.408 38.8109 333.367 37.9678C335.35 37.1247 337.423 36.7031 339.588 36.7031C342.299 36.7031 344.817 37.3411 347.142 38.6172C349.466 39.8704 351.357 41.5794 352.815 43.7441ZM356.883 40.9414L354.832 42.2744C353.146 39.8135 350.958 37.8652 348.27 36.4297C345.604 34.9714 342.71 34.2422 339.588 34.2422C336.238 34.2422 333.151 35.0739 330.325 36.7373C327.5 38.3779 325.255 40.611 323.592 43.4365C321.951 46.262 321.131 49.3496 321.131 52.6992C321.131 56.0488 321.951 59.1364 323.592 61.9619C325.255 64.7874 327.5 67.0319 330.325 68.6953C333.151 70.3359 336.238 71.1562 339.588 71.1562C342.71 71.1562 345.615 70.4271 348.304 68.9688C350.993 67.5104 353.18 65.5394 354.866 63.0557L356.883 64.457C354.969 67.2826 352.485 69.5156 349.432 71.1562C346.401 72.7969 343.12 73.6172 339.588 73.6172C335.805 73.6172 332.308 72.6829 329.095 70.8145C325.882 68.946 323.341 66.4053 321.473 63.1924C319.604 59.9795 318.67 56.4818 318.67 52.6992C318.67 48.9167 319.604 45.4189 321.473 42.2061C323.341 38.9932 325.882 36.4525 329.095 34.584C332.308 32.7155 335.805 31.7812 339.588 31.7812C343.12 31.7812 346.401 32.6016 349.432 34.2422C352.485 35.8828 354.969 38.1159 356.883 40.9414ZM360.984 38.207L358.934 39.54C356.792 36.3955 354.012 33.9118 350.594 32.0889C347.199 30.2432 343.53 29.3203 339.588 29.3203C336.421 29.3203 333.39 29.9355 330.496 31.166C327.602 32.3965 325.107 34.0599 323.011 36.1562C320.937 38.2298 319.285 40.7135 318.055 43.6074C316.824 46.5013 316.209 49.5319 316.209 52.6992C316.209 55.8665 316.824 58.8971 318.055 61.791C319.285 64.6849 320.937 67.18 323.011 69.2764C325.107 71.3499 327.602 73.002 330.496 74.2324C333.39 75.4629 336.421 76.0781 339.588 76.0781C343.553 76.0781 347.233 75.1553 350.628 73.3096C354.023 71.4639 356.792 68.9688 358.934 65.8242L360.916 67.2939C358.546 70.7575 355.481 73.5033 351.722 75.5312C347.985 77.5365 343.94 78.5391 339.588 78.5391C334.917 78.5391 330.599 77.3883 326.634 75.0869C322.669 72.7627 319.524 69.6182 317.2 65.6533C314.899 61.6885 313.748 57.3704 313.748 52.6992C313.748 48.028 314.899 43.71 317.2 39.7451C319.524 35.7803 322.669 32.6471 326.634 30.3457C330.599 28.0215 334.917 26.8594 339.588 26.8594C343.963 26.8594 348.03 27.8848 351.79 29.9355C355.55 31.9635 358.615 34.7207 360.984 38.207ZM365.018 35.4043L362.967 36.7373C360.369 32.932 357.008 29.9242 352.884 27.7139C348.782 25.5036 344.35 24.3984 339.588 24.3984C335.76 24.3984 332.091 25.1504 328.582 26.6543C325.096 28.1354 322.088 30.1406 319.559 32.6699C317.029 35.1992 315.013 38.2184 313.509 41.7275C312.028 45.2139 311.287 48.8711 311.287 52.6992C311.287 56.5273 312.028 60.196 313.509 63.7051C315.013 67.1914 317.029 70.1992 319.559 72.7285C322.088 75.2578 325.096 77.2744 328.582 78.7783C332.091 80.2594 335.76 81 339.588 81C344.35 81 348.794 79.8835 352.918 77.6504C357.042 75.4173 360.403 72.3981 363.001 68.5928L364.983 70.0967C362.158 74.1982 358.512 77.4567 354.046 79.8721C349.58 82.2646 344.76 83.4609 339.588 83.4609C335.418 83.4609 331.43 82.6406 327.625 81C323.842 79.3822 320.573 77.2061 317.815 74.4717C315.081 71.7145 312.894 68.4447 311.253 64.6621C309.635 60.8568 308.826 56.8691 308.826 52.6992C308.826 48.5293 309.635 44.5531 311.253 40.7705C312.894 36.9652 315.081 33.6953 317.815 30.9609C320.573 28.2038 323.842 26.0163 327.625 24.3984C331.43 22.7578 335.418 21.9375 339.588 21.9375C344.783 21.9375 349.614 23.1452 354.08 25.5605C358.546 27.9759 362.192 31.2572 365.018 35.4043ZM388.567 49.4521C386.653 51.3662 385.696 53.679 385.696 56.3906C385.696 59.1022 386.653 61.4264 388.567 63.3633C390.504 65.2773 392.828 66.2344 395.54 66.2344C398.252 66.2344 400.564 65.2773 402.479 63.3633C404.415 61.4264 405.384 59.1022 405.384 56.3906C405.384 53.679 404.415 51.3662 402.479 49.4521C400.564 47.5153 398.252 46.5469 395.54 46.5469C392.828 46.5469 390.504 47.5153 388.567 49.4521ZM386.824 65.1064C384.432 62.6911 383.235 59.7858 383.235 56.3906C383.235 52.9954 384.432 50.1016 386.824 47.709C389.24 45.2936 392.145 44.0859 395.54 44.0859C398.935 44.0859 401.829 45.2936 404.222 47.709C406.637 50.1016 407.845 52.9954 407.845 56.3906C407.845 59.7858 406.637 62.6911 404.222 65.1064C401.829 67.499 398.935 68.6953 395.54 68.6953C392.145 68.6953 389.24 67.499 386.824 65.1064ZM385.081 45.9658C382.21 48.8597 380.774 52.3346 380.774 56.3906C380.774 60.4466 382.21 63.9215 385.081 66.8154C387.975 69.7093 391.461 71.1562 395.54 71.1562C399.619 71.1562 403.094 69.7093 405.965 66.8154C408.859 63.9215 410.306 60.4466 410.306 56.3906C410.306 52.3346 408.859 48.8597 405.965 45.9658C403.094 43.0719 399.619 41.625 395.54 41.625C391.461 41.625 387.975 43.0719 385.081 45.9658ZM380.604 65.0381C379.077 62.3949 378.313 59.5124 378.313 56.3906C378.313 53.2689 379.077 50.3864 380.604 47.7432C382.153 45.0999 384.249 43.015 386.893 41.4883C389.536 39.9388 392.418 39.1641 395.54 39.1641C398.662 39.1641 401.544 39.9388 404.188 41.4883C406.831 43.015 408.916 45.0999 410.442 47.7432C411.992 50.3864 412.767 53.2689 412.767 56.3906C412.767 59.5124 411.992 62.3949 410.442 65.0381C408.916 67.6813 406.831 69.7777 404.188 71.3271C401.544 72.8538 398.662 73.6172 395.54 73.6172C392.418 73.6172 389.536 72.8538 386.893 71.3271C384.249 69.7777 382.153 67.6813 380.604 65.0381ZM377.391 48.7686C376.365 51.1839 375.853 53.7246 375.853 56.3906C375.853 59.0566 376.365 61.6087 377.391 64.0469C378.439 66.4622 379.84 68.5586 381.595 70.3359C383.372 72.0905 385.468 73.4919 387.884 74.54C390.322 75.5654 392.874 76.0781 395.54 76.0781C398.206 76.0781 400.747 75.5654 403.162 74.54C405.6 73.4919 407.697 72.0905 409.451 70.3359C411.229 68.5586 412.63 66.4622 413.655 64.0469C414.703 61.6087 415.228 59.0566 415.228 56.3906C415.228 53.7246 414.703 51.1839 413.655 48.7686C412.63 46.3304 411.229 44.234 409.451 42.4795C407.697 40.7021 405.6 39.3008 403.162 38.2754C400.747 37.2272 398.206 36.7031 395.54 36.7031C392.874 36.7031 390.322 37.2272 387.884 38.2754C385.468 39.3008 383.372 40.7021 381.595 42.4795C379.84 44.234 378.439 46.3304 377.391 48.7686ZM375.135 65.0039C373.973 62.2695 373.392 59.3984 373.392 56.3906C373.392 53.3828 373.973 50.5117 375.135 47.7773C376.32 45.043 377.892 42.696 379.852 40.7363C381.834 38.7539 384.192 37.1816 386.927 36.0195C389.661 34.8346 392.532 34.2422 395.54 34.2422C398.548 34.2422 401.419 34.8346 404.153 36.0195C406.888 37.1816 409.235 38.7539 411.194 40.7363C413.177 42.696 414.749 45.043 415.911 47.7773C417.096 50.5117 417.688 53.3828 417.688 56.3906C417.688 59.3984 417.096 62.2695 415.911 65.0039C414.749 67.7383 413.177 70.0967 411.194 72.0791C409.235 74.0387 406.888 75.611 404.153 76.7959C401.419 77.958 398.548 78.5391 395.54 78.5391C392.532 78.5391 389.661 77.958 386.927 76.7959C384.192 75.611 381.834 74.0387 379.852 72.0791C377.892 70.0967 376.32 67.7383 375.135 65.0039ZM372.879 46.8545C371.58 49.8851 370.931 53.0638 370.931 56.3906C370.931 59.7174 371.58 62.9076 372.879 65.9609C374.178 68.9915 375.921 71.612 378.108 73.8223C380.319 76.0098 382.939 77.7529 385.97 79.0518C389.023 80.3506 392.213 81 395.54 81C398.867 81 402.046 80.3506 405.076 79.0518C408.13 77.7529 410.75 76.0098 412.938 73.8223C415.148 71.612 416.902 68.9915 418.201 65.9609C419.5 62.9076 420.149 59.7174 420.149 56.3906C420.149 53.0638 419.5 49.8851 418.201 46.8545C416.902 43.8011 415.148 41.1807 412.938 38.9932C410.75 36.7829 408.13 35.0283 405.076 33.7295C402.046 32.4307 398.867 31.7812 395.54 31.7812C392.213 31.7812 389.023 32.4307 385.97 33.7295C382.939 35.0283 380.319 36.7829 378.108 38.9932C375.921 41.1807 374.178 43.8011 372.879 46.8545ZM370.623 66.918C369.188 63.5684 368.47 60.0592 368.47 56.3906C368.47 52.722 369.188 49.2243 370.623 45.8975C372.059 42.5479 373.984 39.6654 376.399 37.25C378.815 34.8346 381.686 32.9092 385.013 31.4736C388.362 30.0381 391.871 29.3203 395.54 29.3203C399.209 29.3203 402.706 30.0381 406.033 31.4736C409.383 32.9092 412.265 34.8346 414.681 37.25C417.096 39.6654 419.021 42.5479 420.457 45.8975C421.893 49.2243 422.61 52.722 422.61 56.3906C422.61 60.0592 421.893 63.5684 420.457 66.918C419.021 70.2448 417.096 73.1159 414.681 75.5312C412.265 77.9466 409.383 79.8721 406.033 81.3076C402.706 82.7432 399.209 83.4609 395.54 83.4609C391.871 83.4609 388.362 82.7432 385.013 81.3076C381.686 79.8721 378.815 77.9466 376.399 75.5312C373.984 73.1159 372.059 70.2448 370.623 66.918ZM442.913 66.2344V46.5469C442.913 46.5469 447.459 46.5469 456.551 46.5469C459.08 46.5469 461.245 47.5039 463.045 49.418C464.868 51.332 465.779 53.6335 465.779 56.3223C465.779 59.1022 464.879 61.4492 463.079 63.3633C461.279 65.2773 459.103 66.2344 456.551 66.2344H442.913ZM445.374 63.7734H456.551C458.396 63.7734 459.969 63.0557 461.268 61.6201C462.589 60.1846 463.25 58.4186 463.25 56.3223C463.25 54.3171 462.589 52.5967 461.268 51.1611C459.969 49.7256 458.396 49.0078 456.551 49.0078H445.374V63.7734ZM440.452 68.6953H456.551C459.786 68.6953 462.555 67.499 464.856 65.1064C467.158 62.6911 468.309 59.763 468.309 56.3223C468.309 52.9499 467.146 50.0674 464.822 47.6748C462.521 45.2822 459.764 44.0859 456.551 44.0859H440.452V68.6953ZM437.991 71.1562V41.625H456.551C460.447 41.625 463.797 43.0719 466.6 45.9658C469.425 48.8369 470.838 52.2891 470.838 56.3223C470.838 60.4466 469.437 63.9557 466.634 66.8496C463.831 69.7207 460.47 71.1562 456.551 71.1562H437.991ZM435.53 73.6172H456.551C459.559 73.6172 462.35 72.8538 464.925 71.3271C467.5 69.8005 469.55 67.7041 471.077 65.0381C472.604 62.3721 473.367 59.4668 473.367 56.3223C473.367 53.2461 472.604 50.3864 471.077 47.7432C469.55 45.0999 467.488 43.015 464.891 41.4883C462.316 39.9388 459.536 39.1641 456.551 39.1641H435.53V73.6172ZM433.069 76.0781V36.7031H456.551C459.992 36.7031 463.193 37.5804 466.155 39.335C469.14 41.0895 471.51 43.4821 473.265 46.5127C475.019 49.5205 475.896 52.7904 475.896 56.3223C475.896 59.8997 475.019 63.2152 473.265 66.2686C471.51 69.2992 469.14 71.6917 466.155 73.4463C463.193 75.2008 459.992 76.0781 456.551 76.0781H433.069ZM430.608 78.5391H456.551C460.447 78.5391 464.07 77.5592 467.42 75.5996C470.77 73.6172 473.436 70.917 475.418 67.499C477.423 64.0811 478.426 60.3555 478.426 56.3223C478.426 52.3574 477.423 48.6774 475.418 45.2822C473.436 41.8643 470.758 39.1755 467.386 37.2158C464.036 35.2334 460.424 34.2422 456.551 34.2422H430.608V78.5391ZM456.551 81H428.147V31.7812H456.551C460.88 31.7812 464.913 32.8864 468.65 35.0967C472.41 37.2842 475.395 40.2692 477.605 44.0518C479.839 47.8115 480.955 51.9017 480.955 56.3223C480.955 59.6719 480.294 62.8734 478.973 65.9268C477.674 68.9801 475.919 71.612 473.709 73.8223C471.521 76.0098 468.924 77.7529 465.916 79.0518C462.908 80.3506 459.786 81 456.551 81ZM498.763 81H496.302V31.7812H498.763V81ZM493.841 81H491.38V31.7812H493.841V81ZM488.919 81H486.458V31.7812H488.919V81ZM503.685 68.6953H527.234V71.1562H503.685V73.6172H527.234V76.0781H503.685V78.5391H527.234V81H501.224V31.7812H527.234V34.2422H503.685V36.7031H527.234V39.1641H503.685V41.625H527.234V44.0859H503.685V50.2041H525.867V52.665H503.685V55.126H525.867V57.5869H503.685V60.0479H525.867V62.5088H503.685V68.6953ZM551.741 57.4844H566.575C568.535 57.4844 570.198 56.8691 571.565 55.6387C572.933 54.4082 573.616 52.6764 573.616 50.4434C573.616 48.8027 572.898 47.333 571.463 46.0342C570.05 44.7354 568.421 44.0859 566.575 44.0859H545.452V81H542.991V41.625H566.575C569.104 41.625 571.315 42.5137 573.206 44.291C575.12 46.0684 576.077 48.1191 576.077 50.4434C576.077 53.3372 575.154 55.6501 573.309 57.3818C571.463 59.0908 569.218 59.9453 566.575 59.9453H551.741V57.4844ZM551.741 62.4062H566.575C569.856 62.4062 572.671 61.2897 575.018 59.0566C577.365 56.8236 578.538 53.9525 578.538 50.4434C578.538 47.4583 577.342 44.8379 574.949 42.582C572.557 40.3034 569.765 39.1641 566.575 39.1641H540.53V81H538.069V36.7031H566.575C570.449 36.7031 573.821 38.0817 576.692 40.8389C579.563 43.5732 580.999 46.7747 580.999 50.4434C580.999 54.5449 579.575 57.9743 576.727 60.7314C573.901 63.4886 570.517 64.8672 566.575 64.8672H551.741V62.4062ZM551.741 67.3281H566.575C569.606 67.3281 572.409 66.599 574.983 65.1406C577.558 63.6823 579.609 61.6543 581.136 59.0566C582.685 56.459 583.46 53.5879 583.46 50.4434C583.46 47.5951 582.697 44.929 581.17 42.4453C579.643 39.9388 577.57 37.945 574.949 36.4639C572.352 34.9827 569.56 34.2422 566.575 34.2422H535.608V81H533.147V31.7812H566.575C569.15 31.7812 571.622 32.2939 573.992 33.3193C576.385 34.3219 578.447 35.6663 580.179 37.3525C581.91 39.016 583.3 40.9984 584.349 43.2998C585.397 45.6012 585.921 47.9824 585.921 50.4434C585.921 54.431 585.009 57.9173 583.187 60.9023C581.364 63.8646 578.914 66.1204 575.838 67.6699L580.999 81H578.367L573.479 68.6611C572.864 68.8662 572.146 69.0713 571.326 69.2764L575.94 81H573.309L568.797 69.6865C568.09 69.7549 567.35 69.7891 566.575 69.7891L570.916 81H568.318L564.012 69.7891H561.79L565.926 81H563.328L559.158 69.7891H551.741V67.3281ZM550.374 81H547.913V46.5469H566.575C567.851 46.5469 568.934 46.9342 569.822 47.709C570.711 48.4609 571.155 49.3724 571.155 50.4434C571.155 53.4967 569.629 55.0234 566.575 55.0234H551.741V52.5625H566.575C567.988 52.5625 568.694 51.8561 568.694 50.4434C568.694 50.056 568.478 49.7256 568.045 49.4521C567.635 49.1559 567.145 49.0078 566.575 49.0078H550.374V81ZM614.017 57.5869H610.12C605.335 57.5869 601.655 56.6185 599.08 54.6816C596.505 52.722 595.218 50.0332 595.218 46.6152C595.218 43.4251 596.733 40.7705 599.764 38.6514C602.794 36.5094 607.044 35.4385 612.513 35.4385C616.159 35.4385 619.554 35.9398 622.698 36.9424C625.866 37.945 628.497 39.3577 630.594 41.1807L628.68 42.7188C626.811 41.1921 624.464 40.0072 621.639 39.1641C618.813 38.321 615.771 37.8994 612.513 37.8994C607.705 37.8994 604.025 38.7197 601.473 40.3604C598.943 42.001 597.679 44.0859 597.679 46.6152C597.679 49.3496 598.715 51.4574 600.789 52.9385C602.885 54.3968 605.996 55.126 610.12 55.126H613.88C618.733 55.126 622.448 56.1058 625.022 58.0654C627.62 60.0023 628.919 62.6797 628.919 66.0977C628.919 69.2878 627.404 71.9538 624.373 74.0957C621.342 76.2148 617.093 77.2744 611.624 77.2744C607.978 77.2744 604.572 76.7731 601.404 75.7705C598.26 74.7679 595.639 73.3551 593.543 71.5322L595.457 69.9941C597.326 71.5208 599.673 72.7057 602.498 73.5488C605.324 74.3919 608.366 74.8135 611.624 74.8135C616.432 74.8135 620.101 73.9932 622.63 72.3525C625.182 70.7119 626.458 68.627 626.458 66.0977C626.458 63.3633 625.41 61.2669 623.313 59.8086C621.24 58.3275 618.141 57.5869 614.017 57.5869ZM614.017 62.5088H610.12C603.785 62.5088 598.898 61.0732 595.457 58.2021C592.016 55.3083 590.296 51.446 590.296 46.6152C590.296 44.4049 590.786 42.3314 591.766 40.3945C592.745 38.4577 594.147 36.7601 595.97 35.3018C597.815 33.8206 600.162 32.6585 603.011 31.8154C605.859 30.9495 609.026 30.5166 612.513 30.5166C616.91 30.5166 621.023 31.1888 624.852 32.5332C628.68 33.8548 631.87 35.7119 634.422 38.1045L632.439 39.5742C630.115 37.4779 627.21 35.86 623.724 34.7207C620.237 33.5586 616.5 32.9775 612.513 32.9775C606.36 32.9775 601.53 34.2764 598.021 36.874C594.511 39.4717 592.757 42.7188 592.757 46.6152C592.757 50.7396 594.261 54.0094 597.269 56.4248C600.276 58.8402 604.56 60.0479 610.12 60.0479H613.88C620.625 60.0479 623.997 62.0645 623.997 66.0977C623.997 67.9206 622.96 69.4245 620.887 70.6094C618.836 71.7715 615.748 72.3525 611.624 72.3525C608.73 72.3525 606.041 72.0221 603.558 71.3613C601.074 70.6777 599.023 69.7093 597.405 68.4561L599.354 66.9521C602.202 68.9118 606.292 69.8916 611.624 69.8916C615.042 69.8916 617.549 69.5384 619.144 68.832C620.739 68.1257 621.536 67.2142 621.536 66.0977C621.536 64.7988 620.978 63.876 619.861 63.3291C618.745 62.7822 616.797 62.5088 614.017 62.5088ZM614.017 52.665H610.12C603.466 52.665 600.14 50.6484 600.14 46.6152C600.14 44.7923 601.165 43.2998 603.216 42.1377C605.289 40.9528 608.388 40.3604 612.513 40.3604C615.407 40.3604 618.095 40.7021 620.579 41.3857C623.063 42.0465 625.114 43.0036 626.731 44.2568L624.783 45.7607C621.935 43.8011 617.845 42.8213 612.513 42.8213C609.095 42.8213 606.588 43.1745 604.993 43.8809C603.398 44.5872 602.601 45.4987 602.601 46.6152C602.601 47.9141 603.159 48.8369 604.275 49.3838C605.392 49.9307 607.34 50.2041 610.12 50.2041H614.017C620.351 50.2041 625.239 51.651 628.68 54.5449C632.12 57.416 633.841 61.2669 633.841 66.0977C633.841 68.3079 633.351 70.3815 632.371 72.3184C631.391 74.2552 629.979 75.9642 628.133 77.4453C626.31 78.9036 623.974 80.0658 621.126 80.9316C618.278 81.7747 615.11 82.1963 611.624 82.1963C607.226 82.1963 603.113 81.5355 599.285 80.2139C595.457 78.8695 592.267 77.001 589.715 74.6084L591.697 73.1387C594.021 75.235 596.927 76.8643 600.413 78.0264C603.899 79.1657 607.636 79.7354 611.624 79.7354C617.776 79.7354 622.607 78.4365 626.116 75.8389C629.625 73.2412 631.38 69.9941 631.38 66.0977C631.38 61.9733 629.876 58.7035 626.868 56.2881C623.86 53.8727 619.576 52.665 614.017 52.665Z" fill="#5FACB8"/>
<path d="M74.88 16H3.12C1.39425 16 0 17.3942 0 19.12V90.88C0 92.6057 1.39425 94 3.12 94H78V19.12C78 17.3942 76.6057 16 74.88 16ZM39.1072 55.5947L20.3872 71.2922C19.8802 71.7212 19.11 71.3605 19.11 70.6975V64.5842C19.11 64.36 19.2172 64.1357 19.3927 63.9895L30.0982 55L19.3927 46.0105C19.3031 45.9397 19.231 45.8493 19.182 45.7461C19.1329 45.643 19.1083 45.5299 19.11 45.4158V39.3025C19.11 38.6395 19.8802 38.2787 20.3872 38.7077L39.1072 54.3955C39.4875 54.7075 39.4875 55.2827 39.1072 55.5947ZM58.89 70.6975C58.89 71.1265 58.5585 71.4775 58.1587 71.4775H40.1213C39.7215 71.4775 39.39 71.1265 39.39 70.6975V66.0175C39.39 65.5885 39.7215 65.2375 40.1213 65.2375H58.1587C58.5585 65.2375 58.89 65.5885 58.89 66.0175V70.6975Z" fill="#D56F6F"/>
</svg>
